{
	"asset":{
		"generator":"Khronos glTF Blender I/O v5.1.19",
		"version":"2.0"
	},
	"extensionsUsed":[
		"KHR_texture_transform"
	],
	"extensionsRequired":[
		"KHR_texture_transform"
	],
	"scene":0,
	"scenes":[
		{
			"name":"Scene",
			"nodes":[
				0,
				4,
				5,
				6,
				10,
				11
			]
		}
	],
	"nodes":[
		{
			"mesh":0,
			"name":"Floor",
			"scale":[
				13,
				1,
				13
			]
		},
		{
			"mesh":1,
			"name":"W1Frame1",
			"rotation":[
				-0.6830127239227295,
				0.18301266431808472,
				0.18301264941692352,
				0.6830126643180847
			],
			"scale":[
				5.100886344909668,
				5.100886344909668,
				5.10088586807251
			],
			"translation":[
				7.737912178039551,
				0.4384772777557373,
				-0.35764408111572266
			]
		},
		{
			"mesh":2,
			"name":"W1Frame2",
			"rotation":[
				-0.7071068286895752,
				0,
				0,
				0.7071068286895752
			],
			"scale":[
				5.10088586807251,
				5.10088586807251,
				5.10088586807251
			],
			"translation":[
				0.5734566450119019,
				0.4384772777557373,
				1.8681211471557617
			]
		},
		{
			"mesh":3,
			"name":"W1Frame3",
			"rotation":[
				-0.6830127239227295,
				-0.18301266431808472,
				-0.18301264941692352,
				0.6830126643180847
			],
			"scale":[
				5.100886344909668,
				5.100886344909668,
				5.10088586807251
			],
			"translation":[
				-6.760240077972412,
				0.4384772777557373,
				0.1831960678100586
			]
		},
		{
			"children":[
				1,
				2,
				3
			],
			"mesh":4,
			"name":"Wall1",
			"translation":[
				-0.022459300234913826,
				2.793635129928589,
				11
			]
		},
		{
			"name":"Empty",
			"translation":[
				0.08881980925798416,
				0.265713632106781,
				0
			]
		},
		{
			"mesh":5,
			"name":"Garden2",
			"rotation":[
				0,
				-1,
				0,
				4.371138828673793e-08
			],
			"scale":[
				0.9170985221862793,
				1,
				1
			],
			"translation":[
				0,
				0.20000000298023224,
				-6
			]
		},
		{
			"mesh":6,
			"name":"W2Frame1",
			"rotation":[
				-0.6830127239227295,
				0.18301266431808472,
				0.18301264941692352,
				0.6830126643180847
			],
			"scale":[
				5.100886344909668,
				5.100886344909668,
				5.10088586807251
			],
			"translation":[
				7.737912178039551,
				0.4384772777557373,
				-0.35764434933662415
			]
		},
		{
			"mesh":7,
			"name":"W2Frame2",
			"rotation":[
				-0.7071068286895752,
				0,
				0,
				0.7071068286895752
			],
			"scale":[
				5.10088586807251,
				5.10088586807251,
				5.10088586807251
			],
			"translation":[
				0.5734565854072571,
				0.4384772777557373,
				1.8681211471557617
			]
		},
		{
			"mesh":8,
			"name":"W2Frame3",
			"rotation":[
				-0.6830127239227295,
				-0.18301266431808472,
				-0.18301264941692352,
				0.6830126643180847
			],
			"scale":[
				5.100886344909668,
				5.100886344909668,
				5.10088586807251
			],
			"translation":[
				-6.760240077972412,
				0.4384772777557373,
				0.18319642543792725
			]
		},
		{
			"children":[
				7,
				8,
				9
			],
			"mesh":9,
			"name":"Wall2",
			"rotation":[
				0,
				-1,
				0,
				4.371138828673793e-08
			],
			"translation":[
				0,
				2.700000047683716,
				-11
			]
		},
		{
			"mesh":10,
			"name":"Garden1",
			"scale":[
				0.9170984625816345,
				1,
				1
			],
			"translation":[
				0,
				0.19999998807907104,
				5.999999523162842
			]
		}
	],
	"materials":[
		{
			"doubleSided":true,
			"name":"Gravel White",
			"normalTexture":{
				"index":0
			},
			"pbrMetallicRoughness":{
				"baseColorTexture":{
					"index":1
				},
				"metallicFactor":0,
				"metallicRoughnessTexture":{
					"index":2
				}
			}
		},
		{
			"doubleSided":true,
			"name":"fancy_picture_frame_01.002",
			"normalTexture":{
				"index":3
			},
			"pbrMetallicRoughness":{
				"baseColorTexture":{
					"index":4
				},
				"metallicFactor":0,
				"metallicRoughnessTexture":{
					"index":5
				}
			}
		},
		{
			"doubleSided":true,
			"name":"Hard White Plaster",
			"normalTexture":{
				"index":6
			},
			"pbrMetallicRoughness":{
				"baseColorTexture":{
					"index":7
				},
				"metallicFactor":0,
				"metallicRoughnessTexture":{
					"index":8
				}
			}
		},
		{
			"doubleSided":true,
			"name":"Dirt Ground",
			"normalTexture":{
				"extensions":{
					"KHR_texture_transform":{
						"offset":[
							0,
							-0.5
						],
						"scale":[
							1.5,
							1.5
						]
					}
				},
				"index":9
			},
			"pbrMetallicRoughness":{
				"baseColorTexture":{
					"extensions":{
						"KHR_texture_transform":{
							"offset":[
								0,
								-0.5
							],
							"scale":[
								1.5,
								1.5
							]
						}
					},
					"index":10
				},
				"metallicFactor":0,
				"metallicRoughnessTexture":{
					"extensions":{
						"KHR_texture_transform":{
							"offset":[
								0,
								-0.5
							],
							"scale":[
								1.5,
								1.5
							]
						}
					},
					"index":11
				}
			}
		},
		{
			"doubleSided":true,
			"name":"fancy_picture_frame_01.001",
			"normalTexture":{
				"index":12
			},
			"pbrMetallicRoughness":{
				"baseColorTexture":{
					"index":13
				},
				"metallicFactor":0,
				"metallicRoughnessTexture":{
					"index":14
				}
			}
		}
	],
	"meshes":[
		{
			"name":"Plane.012",
			"primitives":[
				{
					"attributes":{
						"POSITION":0,
						"NORMAL":1,
						"TEXCOORD_0":2
					},
					"indices":3,
					"material":0
				}
			]
		},
		{
			"name":"Plane.002",
			"primitives":[
				{
					"attributes":{
						"POSITION":4,
						"NORMAL":5,
						"TEXCOORD_0":6
					},
					"indices":7,
					"material":1
				}
			]
		},
		{
			"name":"Plane.062",
			"primitives":[
				{
					"attributes":{
						"POSITION":8,
						"NORMAL":9,
						"TEXCOORD_0":10
					},
					"indices":7,
					"material":1
				}
			]
		},
		{
			"name":"Plane.001",
			"primitives":[
				{
					"attributes":{
						"POSITION":11,
						"NORMAL":12,
						"TEXCOORD_0":13
					},
					"indices":7,
					"material":1
				}
			]
		},
		{
			"name":"Cube",
			"primitives":[
				{
					"attributes":{
						"POSITION":14,
						"NORMAL":15,
						"TEXCOORD_0":16
					},
					"indices":17,
					"material":2
				}
			]
		},
		{
			"name":"Cube.016",
			"primitives":[
				{
					"attributes":{
						"POSITION":18,
						"NORMAL":19,
						"TEXCOORD_0":20
					},
					"indices":21,
					"material":2
				},
				{
					"attributes":{
						"POSITION":22,
						"NORMAL":23,
						"TEXCOORD_0":24
					},
					"indices":25,
					"material":3
				}
			]
		},
		{
			"name":"Plane.004",
			"primitives":[
				{
					"attributes":{
						"POSITION":26,
						"NORMAL":27,
						"TEXCOORD_0":28
					},
					"indices":7,
					"material":4
				}
			]
		},
		{
			"name":"Plane.003",
			"primitives":[
				{
					"attributes":{
						"POSITION":29,
						"NORMAL":30,
						"TEXCOORD_0":31
					},
					"indices":7,
					"material":4
				}
			]
		},
		{
			"name":"Plane.005",
			"primitives":[
				{
					"attributes":{
						"POSITION":32,
						"NORMAL":33,
						"TEXCOORD_0":34
					},
					"indices":7,
					"material":4
				}
			]
		},
		{
			"name":"Cube.021",
			"primitives":[
				{
					"attributes":{
						"POSITION":35,
						"NORMAL":36,
						"TEXCOORD_0":37
					},
					"indices":17,
					"material":2
				}
			]
		},
		{
			"name":"Cube.001",
			"primitives":[
				{
					"attributes":{
						"POSITION":38,
						"NORMAL":39,
						"TEXCOORD_0":40
					},
					"indices":21,
					"material":2
				},
				{
					"attributes":{
						"POSITION":41,
						"NORMAL":42,
						"TEXCOORD_0":43
					},
					"indices":25,
					"material":3
				}
			]
		}
	],
	"textures":[
		{
			"sampler":0,
			"source":0
		},
		{
			"sampler":0,
			"source":1
		},
		{
			"sampler":0,
			"source":2
		},
		{
			"sampler":0,
			"source":3
		},
		{
			"sampler":0,
			"source":4
		},
		{
			"sampler":0,
			"source":5
		},
		{
			"sampler":0,
			"source":6
		},
		{
			"sampler":0,
			"source":7
		},
		{
			"sampler":0,
			"source":8
		},
		{
			"sampler":0,
			"source":9
		},
		{
			"sampler":0,
			"source":10
		},
		{
			"sampler":0,
			"source":11
		},
		{
			"sampler":0,
			"source":12
		},
		{
			"sampler":0,
			"source":13
		},
		{
			"sampler":0,
			"source":14
		}
	],
	"images":[
		{
			"mimeType":"image/jpeg",
			"name":"Gravel023_4K_NormalGL.jpg",
			"uri":"../../../../../dynamic-vr-musea/client/blender/textures/Gravel023_4K_NormalGL.jpg"
		},
		{
			"mimeType":"image/jpeg",
			"name":"Gravel023_4K_Color.jpg",
			"uri":"../../../../../dynamic-vr-musea/client/blender/textures/Gravel023_4K_Color.jpg"
		},
		{
			"mimeType":"image/jpeg",
			"name":"Gravel023_4K_Roughness.jpg",
			"uri":"../../../../../dynamic-vr-musea/client/blender/textures/Gravel023_4K_Roughness.jpg"
		},
		{
			"mimeType":"image/jpeg",
			"name":"fancy_picture_frame_01_nor_gl.png.002",
			"uri":"../../../../../../../../tmp/fancy_picture_fr_10b09de4-5f7c-46bb-a4d7-f04ec245121e/textures_2k/fancy_picture_frame_01_nor_gl_8k.exr"
		},
		{
			"mimeType":"image/jpeg",
			"name":"fancy_picture_frame_01_diff.png.002",
			"uri":"../../../../../../../../tmp/fancy_picture_fr_10b09de4-5f7c-46bb-a4d7-f04ec245121e/textures_2k/fancy_picture_frame_01_diff_8k.jpg"
		},
		{
			"mimeType":"image/jpeg",
			"name":"fancy_picture_frame_01_rough.png.002",
			"uri":"../../../../../../../../tmp/fancy_picture_fr_10b09de4-5f7c-46bb-a4d7-f04ec245121e/textures_2k/fancy_picture_frame_01_rough_8k.jpg"
		},
		{
			"mimeType":"image/jpeg",
			"name":"White Plaster_NormalGL.jpg.001",
			"uri":"../../../../../../../../tmp/white_plaster_281c69f9-3d44-48c6-a8a4-60f7ea943b87/textures_2k/Concrete024_4K-JPG_NormalGL.jpg"
		},
		{
			"mimeType":"image/jpeg",
			"name":"White Plaster_Color.jpg.001",
			"uri":"../../../../../../../../tmp/white_plaster_281c69f9-3d44-48c6-a8a4-60f7ea943b87/textures_2k/1_Color.jpg"
		},
		{
			"mimeType":"image/jpeg",
			"name":"White Plaster_Roughness.jpg.001",
			"uri":"../../../../../../../../tmp/white_plaster_281c69f9-3d44-48c6-a8a4-60f7ea943b87/textures_2k/Concrete024_4K-JPG_Roughness.jpg"
		},
		{
			"mimeType":"image/jpeg",
			"name":"T_GroundDirt_03_normalOGL.jpg",
			"uri":"../../../../../../../../tmp/dirt_ground_6ba66524-701c-4822-b2e7-a6bea8af8505/textures_2k/T_GroundDirt_03_normalOGL.jpg"
		},
		{
			"mimeType":"image/jpeg",
			"name":"T_GroundDirt_03_basecolor.jpg",
			"uri":"../../../../../../../../tmp/dirt_ground_6ba66524-701c-4822-b2e7-a6bea8af8505/textures_2k/T_GroundDirt_03_basecolor.jpg"
		},
		{
			"mimeType":"image/jpeg",
			"name":"T_GroundDirt_03_roughness.jpg",
			"uri":"../../../../../../../../tmp/dirt_ground_6ba66524-701c-4822-b2e7-a6bea8af8505/textures_2k/T_GroundDirt_03_roughness.jpg"
		},
		{
			"mimeType":"image/jpeg",
			"name":"fancy_picture_frame_01_nor_gl.png.001",
			"uri":"../../../../../../../../tmp/fancy_picture_fr_10b09de4-5f7c-46bb-a4d7-f04ec245121e/textures_2k/fancy_picture_frame_01_nor_gl_8k.exr"
		},
		{
			"mimeType":"image/jpeg",
			"name":"fancy_picture_frame_01_diff.png.001",
			"uri":"../../../../../../../../tmp/fancy_picture_fr_10b09de4-5f7c-46bb-a4d7-f04ec245121e/textures_2k/fancy_picture_frame_01_diff_8k.jpg"
		},
		{
			"mimeType":"image/jpeg",
			"name":"fancy_picture_frame_01_rough.png.001",
			"uri":"../../../../../../../../tmp/fancy_picture_fr_10b09de4-5f7c-46bb-a4d7-f04ec245121e/textures_2k/fancy_picture_frame_01_rough_8k.jpg"
		}
	],
	"accessors":[
		{
			"bufferView":0,
			"componentType":5126,
			"count":4,
			"max":[
				1,
				0,
				1
			],
			"min":[
				-1,
				0,
				-1
			],
			"type":"VEC3"
		},
		{
			"bufferView":1,
			"componentType":5126,
			"count":4,
			"type":"VEC3"
		},
		{
			"bufferView":2,
			"componentType":5126,
			"count":4,
			"type":"VEC2"
		},
		{
			"bufferView":3,
			"componentType":5123,
			"count":6,
			"type":"SCALAR"
		},
		{
			"bufferView":4,
			"componentType":5126,
			"count":629,
			"max":[
				0.30130791664123535,
				0.031306810677051544,
				0.21148186922073364
			],
			"min":[
				-0.5076069831848145,
				0.011313771829009056,
				-0.2526445686817169
			],
			"type":"VEC3"
		},
		{
			"bufferView":5,
			"componentType":5126,
			"count":629,
			"type":"VEC3"
		},
		{
			"bufferView":6,
			"componentType":5126,
			"count":629,
			"type":"VEC2"
		},
		{
			"bufferView":7,
			"componentType":5123,
			"count":2808,
			"type":"SCALAR"
		},
		{
			"bufferView":8,
			"componentType":5126,
			"count":629,
			"max":[
				0.30130791664123535,
				0.031306810677051544,
				0.21148186922073364
			],
			"min":[
				-0.5076069831848145,
				0.011313771829009056,
				-0.2526445686817169
			],
			"type":"VEC3"
		},
		{
			"bufferView":9,
			"componentType":5126,
			"count":629,
			"type":"VEC3"
		},
		{
			"bufferView":10,
			"componentType":5126,
			"count":629,
			"type":"VEC2"
		},
		{
			"bufferView":11,
			"componentType":5126,
			"count":629,
			"max":[
				0.30130791664123535,
				0.031306810677051544,
				0.21148186922073364
			],
			"min":[
				-0.5076069831848145,
				0.011313771829009056,
				-0.2526445686817169
			],
			"type":"VEC3"
		},
		{
			"bufferView":12,
			"componentType":5126,
			"count":629,
			"type":"VEC3"
		},
		{
			"bufferView":13,
			"componentType":5126,
			"count":629,
			"type":"VEC2"
		},
		{
			"bufferView":14,
			"componentType":5126,
			"count":414,
			"max":[
				11.361367225646973,
				2.784715414047241,
				3.3456058502197266
			],
			"min":[
				-11.361367225646973,
				-2.784715414047241,
				-2.7746405601501465
			],
			"type":"VEC3"
		},
		{
			"bufferView":15,
			"componentType":5126,
			"count":414,
			"type":"VEC3"
		},
		{
			"bufferView":16,
			"componentType":5126,
			"count":414,
			"type":"VEC2"
		},
		{
			"bufferView":17,
			"componentType":5123,
			"count":1080,
			"type":"SCALAR"
		},
		{
			"bufferView":18,
			"componentType":5126,
			"count":500,
			"max":[
				6.7894392013549805,
				0.23432663083076477,
				2.2078769207000732
			],
			"min":[
				-6.7894392013549805,
				-0.23432663083076477,
				-3.7268102169036865
			],
			"type":"VEC3"
		},
		{
			"bufferView":19,
			"componentType":5126,
			"count":500,
			"type":"VEC3"
		},
		{
			"bufferView":20,
			"componentType":5126,
			"count":500,
			"type":"VEC2"
		},
		{
			"bufferView":21,
			"componentType":5123,
			"count":1116,
			"type":"SCALAR"
		},
		{
			"bufferView":22,
			"componentType":5126,
			"count":40,
			"max":[
				6.439568996429443,
				0.00349363312125206,
				1.9870892763137817
			],
			"min":[
				-6.439568996429443,
				0.00349363312125206,
				-3.462191581726074
			],
			"type":"VEC3"
		},
		{
			"bufferView":23,
			"componentType":5126,
			"count":40,
			"type":"VEC3"
		},
		{
			"bufferView":24,
			"componentType":5126,
			"count":40,
			"type":"VEC2"
		},
		{
			"bufferView":25,
			"componentType":5123,
			"count":108,
			"type":"SCALAR"
		},
		{
			"bufferView":26,
			"componentType":5126,
			"count":629,
			"max":[
				0.30130791664123535,
				0.031306810677051544,
				0.21148186922073364
			],
			"min":[
				-0.5076069831848145,
				0.011313771829009056,
				-0.2526445686817169
			],
			"type":"VEC3"
		},
		{
			"bufferView":27,
			"componentType":5126,
			"count":629,
			"type":"VEC3"
		},
		{
			"bufferView":28,
			"componentType":5126,
			"count":629,
			"type":"VEC2"
		},
		{
			"bufferView":29,
			"componentType":5126,
			"count":629,
			"max":[
				0.30130791664123535,
				0.031306810677051544,
				0.21148186922073364
			],
			"min":[
				-0.5076069831848145,
				0.011313771829009056,
				-0.2526445686817169
			],
			"type":"VEC3"
		},
		{
			"bufferView":30,
			"componentType":5126,
			"count":629,
			"type":"VEC3"
		},
		{
			"bufferView":31,
			"componentType":5126,
			"count":629,
			"type":"VEC2"
		},
		{
			"bufferView":32,
			"componentType":5126,
			"count":629,
			"max":[
				0.30130791664123535,
				0.031306810677051544,
				0.21148186922073364
			],
			"min":[
				-0.5076069831848145,
				0.011313771829009056,
				-0.2526445686817169
			],
			"type":"VEC3"
		},
		{
			"bufferView":33,
			"componentType":5126,
			"count":629,
			"type":"VEC3"
		},
		{
			"bufferView":34,
			"componentType":5126,
			"count":629,
			"type":"VEC2"
		},
		{
			"bufferView":35,
			"componentType":5126,
			"count":414,
			"max":[
				11.361367225646973,
				2.784715414047241,
				3.3456058502197266
			],
			"min":[
				-11.361367225646973,
				-2.784715414047241,
				-2.7746405601501465
			],
			"type":"VEC3"
		},
		{
			"bufferView":36,
			"componentType":5126,
			"count":414,
			"type":"VEC3"
		},
		{
			"bufferView":37,
			"componentType":5126,
			"count":414,
			"type":"VEC2"
		},
		{
			"bufferView":38,
			"componentType":5126,
			"count":500,
			"max":[
				6.7894392013549805,
				0.23432663083076477,
				2.2078769207000732
			],
			"min":[
				-6.7894392013549805,
				-0.23432663083076477,
				-3.7268102169036865
			],
			"type":"VEC3"
		},
		{
			"bufferView":39,
			"componentType":5126,
			"count":500,
			"type":"VEC3"
		},
		{
			"bufferView":40,
			"componentType":5126,
			"count":500,
			"type":"VEC2"
		},
		{
			"bufferView":41,
			"componentType":5126,
			"count":40,
			"max":[
				6.439568996429443,
				0.00349363312125206,
				1.9870892763137817
			],
			"min":[
				-6.439568996429443,
				0.00349363312125206,
				-3.462191581726074
			],
			"type":"VEC3"
		},
		{
			"bufferView":42,
			"componentType":5126,
			"count":40,
			"type":"VEC3"
		},
		{
			"bufferView":43,
			"componentType":5126,
			"count":40,
			"type":"VEC2"
		}
	],
	"bufferViews":[
		{
			"buffer":0,
			"byteLength":48,
			"byteOffset":0,
			"target":34962
		},
		{
			"buffer":0,
			"byteLength":48,
			"byteOffset":48,
			"target":34962
		},
		{
			"buffer":0,
			"byteLength":32,
			"byteOffset":96,
			"target":34962
		},
		{
			"buffer":0,
			"byteLength":12,
			"byteOffset":128,
			"target":34963
		},
		{
			"buffer":0,
			"byteLength":7548,
			"byteOffset":140,
			"target":34962
		},
		{
			"buffer":0,
			"byteLength":7548,
			"byteOffset":7688,
			"target":34962
		},
		{
			"buffer":0,
			"byteLength":5032,
			"byteOffset":15236,
			"target":34962
		},
		{
			"buffer":0,
			"byteLength":5616,
			"byteOffset":20268,
			"target":34963
		},
		{
			"buffer":0,
			"byteLength":7548,
			"byteOffset":25884,
			"target":34962
		},
		{
			"buffer":0,
			"byteLength":7548,
			"byteOffset":33432,
			"target":34962
		},
		{
			"buffer":0,
			"byteLength":5032,
			"byteOffset":40980,
			"target":34962
		},
		{
			"buffer":0,
			"byteLength":7548,
			"byteOffset":46012,
			"target":34962
		},
		{
			"buffer":0,
			"byteLength":7548,
			"byteOffset":53560,
			"target":34962
		},
		{
			"buffer":0,
			"byteLength":5032,
			"byteOffset":61108,
			"target":34962
		},
		{
			"buffer":0,
			"byteLength":4968,
			"byteOffset":66140,
			"target":34962
		},
		{
			"buffer":0,
			"byteLength":4968,
			"byteOffset":71108,
			"target":34962
		},
		{
			"buffer":0,
			"byteLength":3312,
			"byteOffset":76076,
			"target":34962
		},
		{
			"buffer":0,
			"byteLength":2160,
			"byteOffset":79388,
			"target":34963
		},
		{
			"buffer":0,
			"byteLength":6000,
			"byteOffset":81548,
			"target":34962
		},
		{
			"buffer":0,
			"byteLength":6000,
			"byteOffset":87548,
			"target":34962
		},
		{
			"buffer":0,
			"byteLength":4000,
			"byteOffset":93548,
			"target":34962
		},
		{
			"buffer":0,
			"byteLength":2232,
			"byteOffset":97548,
			"target":34963
		},
		{
			"buffer":0,
			"byteLength":480,
			"byteOffset":99780,
			"target":34962
		},
		{
			"buffer":0,
			"byteLength":480,
			"byteOffset":100260,
			"target":34962
		},
		{
			"buffer":0,
			"byteLength":320,
			"byteOffset":100740,
			"target":34962
		},
		{
			"buffer":0,
			"byteLength":216,
			"byteOffset":101060,
			"target":34963
		},
		{
			"buffer":0,
			"byteLength":7548,
			"byteOffset":101276,
			"target":34962
		},
		{
			"buffer":0,
			"byteLength":7548,
			"byteOffset":108824,
			"target":34962
		},
		{
			"buffer":0,
			"byteLength":5032,
			"byteOffset":116372,
			"target":34962
		},
		{
			"buffer":0,
			"byteLength":7548,
			"byteOffset":121404,
			"target":34962
		},
		{
			"buffer":0,
			"byteLength":7548,
			"byteOffset":128952,
			"target":34962
		},
		{
			"buffer":0,
			"byteLength":5032,
			"byteOffset":136500,
			"target":34962
		},
		{
			"buffer":0,
			"byteLength":7548,
			"byteOffset":141532,
			"target":34962
		},
		{
			"buffer":0,
			"byteLength":7548,
			"byteOffset":149080,
			"target":34962
		},
		{
			"buffer":0,
			"byteLength":5032,
			"byteOffset":156628,
			"target":34962
		},
		{
			"buffer":0,
			"byteLength":4968,
			"byteOffset":161660,
			"target":34962
		},
		{
			"buffer":0,
			"byteLength":4968,
			"byteOffset":166628,
			"target":34962
		},
		{
			"buffer":0,
			"byteLength":3312,
			"byteOffset":171596,
			"target":34962
		},
		{
			"buffer":0,
			"byteLength":6000,
			"byteOffset":174908,
			"target":34962
		},
		{
			"buffer":0,
			"byteLength":6000,
			"byteOffset":180908,
			"target":34962
		},
		{
			"buffer":0,
			"byteLength":4000,
			"byteOffset":186908,
			"target":34962
		},
		{
			"buffer":0,
			"byteLength":480,
			"byteOffset":190908,
			"target":34962
		},
		{
			"buffer":0,
			"byteLength":480,
			"byteOffset":191388,
			"target":34962
		},
		{
			"buffer":0,
			"byteLength":320,
			"byteOffset":191868,
			"target":34962
		}
	],
	"samplers":[
		{
			"magFilter":9729,
			"minFilter":9987
		}
	],
	"buffers":[
		{
			"byteLength":192188,
			"uri":"hall.bin"
		}
	]
}
