{
	"asset":{
		"generator":"Khronos glTF Blender I/O v5.1.19",
		"version":"2.0"
	},
	"extensionsUsed":[
		"KHR_materials_specular"
	],
	"scene":0,
	"scenes":[
		{
			"name":"Scene",
			"nodes":[
				0,
				1
			]
		}
	],
	"nodes":[
		{
			"mesh":0,
			"name":"UCR",
			"rotation":[
				0.5,
				-0.5,
				0.5,
				0.5
			],
			"translation":[
				0,
				1.461885690689087,
				0
			]
		},
		{
			"mesh":1,
			"name":"BlockWall",
			"rotation":[
				0,
				0.7071068286895752,
				0,
				0.7071068286895752
			],
			"translation":[
				0,
				2.7899999618530273,
				0
			]
		}
	],
	"materials":[
		{
			"doubleSided":true,
			"extensions":{
				"KHR_materials_specular":{
					"specularTexture":{
						"index":0
					}
				}
			},
			"name":"Blue leather",
			"normalTexture":{
				"index":1
			},
			"pbrMetallicRoughness":{
				"baseColorTexture":{
					"index":2
				},
				"metallicRoughnessTexture":{
					"index":3
				}
			}
		},
		{
			"doubleSided":true,
			"name":"Hard White Plaster.005",
			"normalTexture":{
				"index":4
			},
			"pbrMetallicRoughness":{
				"baseColorTexture":{
					"index":5
				},
				"metallicFactor":0,
				"metallicRoughnessTexture":{
					"index":6
				}
			}
		}
	],
	"meshes":[
		{
			"name":"Text",
			"primitives":[
				{
					"attributes":{
						"POSITION":0,
						"NORMAL":1,
						"TEXCOORD_0":2
					},
					"indices":3,
					"material":0
				}
			]
		},
		{
			"name":"Cube.001",
			"primitives":[
				{
					"attributes":{
						"POSITION":4,
						"NORMAL":5,
						"TEXCOORD_0":6
					},
					"indices":7,
					"material":1
				}
			]
		}
	],
	"textures":[
		{
			"sampler":0,
			"source":0
		},
		{
			"sampler":0,
			"source":1
		},
		{
			"sampler":0,
			"source":2
		},
		{
			"sampler":0,
			"source":3
		},
		{
			"sampler":0,
			"source":4
		},
		{
			"sampler":0,
			"source":5
		},
		{
			"sampler":0,
			"source":6
		}
	],
	"images":[
		{
			"mimeType":"image/jpeg",
			"name":"leather_specular.jpg",
			"uri":"../../../../../../../../tmp/blue_leather_2a95b34f-7d41-4587-9d4d-8bd3f1e2d8ff/textures_2k/leather_specular.jpg"
		},
		{
			"mimeType":"image/jpeg",
			"name":"leather_normal_opengl.jpg",
			"uri":"../../../../../../../../tmp/blue_leather_2a95b34f-7d41-4587-9d4d-8bd3f1e2d8ff/textures_2k/leather_normal_opengl.jpg"
		},
		{
			"mimeType":"image/jpeg",
			"name":"leather07_diffuse.jpg",
			"uri":"../../../../../../../../tmp/blue_leather_2a95b34f-7d41-4587-9d4d-8bd3f1e2d8ff/textures_2k/leather07_diffuse.jpg"
		},
		{
			"mimeType":"image/jpeg",
			"name":"leather_glossiness.jpg",
			"uri":"../../../../../../../../tmp/blue_leather_2a95b34f-7d41-4587-9d4d-8bd3f1e2d8ff/textures_2k/leather_glossiness.jpg"
		},
		{
			"mimeType":"image/jpeg",
			"name":"White Plaster_NormalGL.jpg.006",
			"uri":"../../../../../../../../tmp/white_plaster_281c69f9-3d44-48c6-a8a4-60f7ea943b87/textures_2k/Concrete024_4K-JPG_NormalGL.jpg"
		},
		{
			"mimeType":"image/jpeg",
			"name":"White Plaster_Color.jpg.006",
			"uri":"../../../../../../../../tmp/white_plaster_281c69f9-3d44-48c6-a8a4-60f7ea943b87/textures_2k/1_Color.jpg"
		},
		{
			"mimeType":"image/jpeg",
			"name":"White Plaster_Roughness.jpg.006",
			"uri":"../../../../../../../../tmp/white_plaster_281c69f9-3d44-48c6-a8a4-60f7ea943b87/textures_2k/Concrete024_4K-JPG_Roughness.jpg"
		}
	],
	"accessors":[
		{
			"bufferView":0,
			"componentType":5126,
			"count":1166,
			"max":[
				3.669149875640869,
				0.5074574947357178,
				1.461382269859314
			],
			"min":[
				-3.669149875640869,
				-0.5074573755264282,
				-1.1698906421661377
			],
			"type":"VEC3"
		},
		{
			"bufferView":1,
			"componentType":5126,
			"count":1166,
			"type":"VEC3"
		},
		{
			"bufferView":2,
			"componentType":5126,
			"count":1166,
			"type":"VEC2"
		},
		{
			"bufferView":3,
			"componentType":5123,
			"count":3252,
			"type":"SCALAR"
		},
		{
			"bufferView":4,
			"componentType":5126,
			"count":184,
			"max":[
				8.548372268676758,
				2.784715414047241,
				3.3456058502197266
			],
			"min":[
				-8.548372268676758,
				-2.784715414047241,
				-0.8105859756469727
			],
			"type":"VEC3"
		},
		{
			"bufferView":5,
			"componentType":5126,
			"count":184,
			"type":"VEC3"
		},
		{
			"bufferView":6,
			"componentType":5126,
			"count":184,
			"type":"VEC2"
		},
		{
			"bufferView":7,
			"componentType":5123,
			"count":492,
			"type":"SCALAR"
		}
	],
	"bufferViews":[
		{
			"buffer":0,
			"byteLength":13992,
			"byteOffset":0,
			"target":34962
		},
		{
			"buffer":0,
			"byteLength":13992,
			"byteOffset":13992,
			"target":34962
		},
		{
			"buffer":0,
			"byteLength":9328,
			"byteOffset":27984,
			"target":34962
		},
		{
			"buffer":0,
			"byteLength":6504,
			"byteOffset":37312,
			"target":34963
		},
		{
			"buffer":0,
			"byteLength":2208,
			"byteOffset":43816,
			"target":34962
		},
		{
			"buffer":0,
			"byteLength":2208,
			"byteOffset":46024,
			"target":34962
		},
		{
			"buffer":0,
			"byteLength":1472,
			"byteOffset":48232,
			"target":34962
		},
		{
			"buffer":0,
			"byteLength":984,
			"byteOffset":49704,
			"target":34963
		}
	],
	"samplers":[
		{
			"magFilter":9729,
			"minFilter":9987
		}
	],
	"buffers":[
		{
			"byteLength":50688,
			"uri":"back_side.bin"
		}
	]
}
