{
	"asset":{
		"generator":"Khronos glTF Blender I/O v5.1.19",
		"version":"2.0"
	},
	"scene":0,
	"scenes":[
		{
			"name":"Scene",
			"nodes":[
				0
			]
		}
	],
	"nodes":[
		{
			"mesh":0,
			"name":"PLANTS_1_wire_115115115-material",
			"rotation":[
				0,
				-0.70710688829422,
				-0.7071066498756409,
				1.1520217668703481e-07
			],
			"scale":[
				2.3144354820251465,
				2.3144354820251465,
				2.3144354820251465
			]
		}
	],
	"materials":[
		{
			"doubleSided":true,
			"name":"PLANTS_1_wire_115115115",
			"pbrMetallicRoughness":{
				"baseColorTexture":{
					"index":0
				},
				"metallicFactor":0,
				"roughnessFactor":0.6000000238418579
			}
		}
	],
	"meshes":[
		{
			"name":"PLANTS_1_wire_115115115-material",
			"primitives":[
				{
					"attributes":{
						"POSITION":0,
						"NORMAL":1,
						"TEXCOORD_0":2
					},
					"indices":3,
					"material":0
				}
			]
		}
	],
	"textures":[
		{
			"sampler":0,
			"source":0
		}
	],
	"images":[
		{
			"mimeType":"image/jpeg",
			"name":"Image_1",
			"uri":"Image_1.jpg"
		}
	],
	"accessors":[
		{
			"bufferView":0,
			"componentType":5126,
			"count":192961,
			"max":[
				0.3356301784515381,
				0.35714924335479736,
				0.36591780185699463
			],
			"min":[
				-0.40127789974212646,
				-0.338223397731781,
				-0.15073952078819275
			],
			"type":"VEC3"
		},
		{
			"bufferView":1,
			"componentType":5126,
			"count":192961,
			"type":"VEC3"
		},
		{
			"bufferView":2,
			"componentType":5126,
			"count":192961,
			"type":"VEC2"
		},
		{
			"bufferView":3,
			"componentType":5125,
			"count":449886,
			"type":"SCALAR"
		}
	],
	"bufferViews":[
		{
			"buffer":0,
			"byteLength":2315532,
			"byteOffset":0,
			"target":34962
		},
		{
			"buffer":0,
			"byteLength":2315532,
			"byteOffset":2315532,
			"target":34962
		},
		{
			"buffer":0,
			"byteLength":1543688,
			"byteOffset":4631064,
			"target":34962
		},
		{
			"buffer":0,
			"byteLength":1799544,
			"byteOffset":6174752,
			"target":34963
		}
	],
	"samplers":[
		{
			"magFilter":9729,
			"minFilter":9987
		}
	],
	"buffers":[
		{
			"byteLength":7974296,
			"uri":"mata2.bin"
		}
	]
}
