{
	"asset":{
		"generator":"Khronos glTF Blender I/O v5.1.19",
		"version":"2.0"
	},
	"scene":0,
	"scenes":[
		{
			"name":"Scene",
			"nodes":[
				0
			]
		}
	],
	"nodes":[
		{
			"mesh":0,
			"name":"Plants_Set_trunk_01-material",
			"rotation":[
				-0.70710688829422,
				0,
				0,
				0.7071066498756409
			],
			"scale":[
				2.314436197280884,
				2.3144354820251465,
				2.3144354820251465
			]
		}
	],
	"materials":[
		{
			"doubleSided":true,
			"name":"Plants_Set_trunk_01",
			"pbrMetallicRoughness":{
				"baseColorTexture":{
					"index":0
				},
				"metallicFactor":0,
				"roughnessFactor":0.6000000238418579
			}
		},
		{
			"doubleSided":true,
			"name":"Plants_Set_Leaves_2",
			"pbrMetallicRoughness":{
				"baseColorTexture":{
					"index":1
				},
				"metallicFactor":0,
				"roughnessFactor":0.6000000238418579
			}
		},
		{
			"doubleSided":true,
			"name":"Plants_Set_Leaves_1",
			"pbrMetallicRoughness":{
				"baseColorTexture":{
					"index":2
				},
				"metallicFactor":0,
				"roughnessFactor":0.6000000238418579
			}
		}
	],
	"meshes":[
		{
			"name":"Plants_Set_trunk_01-material",
			"primitives":[
				{
					"attributes":{
						"POSITION":0,
						"NORMAL":1,
						"TEXCOORD_0":2
					},
					"indices":3,
					"material":0
				},
				{
					"attributes":{
						"POSITION":4,
						"NORMAL":5,
						"TEXCOORD_0":6
					},
					"indices":7,
					"material":1
				},
				{
					"attributes":{
						"POSITION":8,
						"NORMAL":9,
						"TEXCOORD_0":10
					},
					"indices":11,
					"material":2
				}
			]
		}
	],
	"textures":[
		{
			"sampler":0,
			"source":0
		},
		{
			"sampler":0,
			"source":1
		},
		{
			"sampler":0,
			"source":2
		}
	],
	"images":[
		{
			"mimeType":"image/jpeg",
			"name":"Image_23",
			"uri":"Image_23.jpg"
		},
		{
			"mimeType":"image/jpeg",
			"name":"Image_24",
			"uri":"Image_24.jpg"
		},
		{
			"mimeType":"image/jpeg",
			"name":"Image_25",
			"uri":"Image_25.jpg"
		}
	],
	"accessors":[
		{
			"bufferView":0,
			"componentType":5126,
			"count":11370,
			"max":[
				0.3811097741127014,
				-19.764755249023438,
				-124.37956237792969
			],
			"min":[
				-0.45368391275405884,
				-20.699405670166016,
				-125.40109252929688
			],
			"type":"VEC3"
		},
		{
			"bufferView":1,
			"componentType":5126,
			"count":11370,
			"type":"VEC3"
		},
		{
			"bufferView":2,
			"componentType":5126,
			"count":11370,
			"type":"VEC2"
		},
		{
			"bufferView":3,
			"componentType":5123,
			"count":16743,
			"type":"SCALAR"
		},
		{
			"bufferView":4,
			"componentType":5126,
			"count":1362,
			"max":[
				0.38040876388549805,
				0.3514862656593323,
				0.2562393546104431
			],
			"min":[
				-0.344113826751709,
				-0.29408952593803406,
				-0.23160916566848755
			],
			"type":"VEC3"
		},
		{
			"bufferView":5,
			"componentType":5126,
			"count":1362,
			"type":"VEC3"
		},
		{
			"bufferView":6,
			"componentType":5126,
			"count":1362,
			"type":"VEC2"
		},
		{
			"bufferView":7,
			"componentType":5123,
			"count":3828,
			"type":"SCALAR"
		},
		{
			"bufferView":8,
			"componentType":5126,
			"count":2414,
			"max":[
				0.36200499534606934,
				0.344593346118927,
				0.5477240085601807
			],
			"min":[
				-0.4804422855377197,
				-0.5416392683982849,
				-0.3782210052013397
			],
			"type":"VEC3"
		},
		{
			"bufferView":9,
			"componentType":5126,
			"count":2414,
			"type":"VEC3"
		},
		{
			"bufferView":10,
			"componentType":5126,
			"count":2414,
			"type":"VEC2"
		},
		{
			"bufferView":11,
			"componentType":5123,
			"count":6474,
			"type":"SCALAR"
		}
	],
	"bufferViews":[
		{
			"buffer":0,
			"byteLength":136440,
			"byteOffset":0,
			"target":34962
		},
		{
			"buffer":0,
			"byteLength":136440,
			"byteOffset":136440,
			"target":34962
		},
		{
			"buffer":0,
			"byteLength":90960,
			"byteOffset":272880,
			"target":34962
		},
		{
			"buffer":0,
			"byteLength":33486,
			"byteOffset":363840,
			"target":34963
		},
		{
			"buffer":0,
			"byteLength":16344,
			"byteOffset":397328,
			"target":34962
		},
		{
			"buffer":0,
			"byteLength":16344,
			"byteOffset":413672,
			"target":34962
		},
		{
			"buffer":0,
			"byteLength":10896,
			"byteOffset":430016,
			"target":34962
		},
		{
			"buffer":0,
			"byteLength":7656,
			"byteOffset":440912,
			"target":34963
		},
		{
			"buffer":0,
			"byteLength":28968,
			"byteOffset":448568,
			"target":34962
		},
		{
			"buffer":0,
			"byteLength":28968,
			"byteOffset":477536,
			"target":34962
		},
		{
			"buffer":0,
			"byteLength":19312,
			"byteOffset":506504,
			"target":34962
		},
		{
			"buffer":0,
			"byteLength":12948,
			"byteOffset":525816,
			"target":34963
		}
	],
	"samplers":[
		{
			"magFilter":9729,
			"minFilter":9987
		}
	],
	"buffers":[
		{
			"byteLength":538764,
			"uri":"mata1.bin"
		}
	]
}
