{
	"asset":{
		"generator":"Khronos glTF Blender I/O v5.1.19",
		"version":"2.0"
	},
	"extensionsUsed":[
		"KHR_texture_transform"
	],
	"extensionsRequired":[
		"KHR_texture_transform"
	],
	"scene":0,
	"scenes":[
		{
			"name":"Scene",
			"nodes":[
				0
			]
		}
	],
	"nodes":[
		{
			"mesh":0,
			"name":"Door",
			"scale":[
				1.5431231260299683,
				1.5431231260299683,
				1.5431231260299683
			],
			"translation":[
				0,
				5.391773700714111,
				0
			]
		}
	],
	"materials":[
		{
			"doubleSided":true,
			"name":"Pine Wood natural",
			"normalTexture":{
				"index":0,
				"scale":0.05000000074505806,
				"texCoord":2
			},
			"pbrMetallicRoughness":{
				"baseColorTexture":{
					"index":1,
					"texCoord":2
				},
				"metallicFactor":0,
				"metallicRoughnessTexture":{
					"index":2,
					"texCoord":2
				}
			}
		},
		{
			"doubleSided":true,
			"name":"Hard White Plaster",
			"normalTexture":{
				"index":3,
				"texCoord":2
			},
			"pbrMetallicRoughness":{
				"baseColorTexture":{
					"index":4,
					"texCoord":2
				},
				"metallicFactor":0,
				"metallicRoughnessTexture":{
					"index":5,
					"texCoord":2
				}
			}
		},
		{
			"doubleSided":true,
			"name":"Dirt Ground",
			"normalTexture":{
				"extensions":{
					"KHR_texture_transform":{
						"offset":[
							0,
							-0.5
						],
						"scale":[
							1.5,
							1.5
						]
					}
				},
				"index":6,
				"texCoord":2
			},
			"pbrMetallicRoughness":{
				"baseColorTexture":{
					"extensions":{
						"KHR_texture_transform":{
							"offset":[
								0,
								-0.5
							],
							"scale":[
								1.5,
								1.5
							]
						}
					},
					"index":7,
					"texCoord":2
				},
				"metallicFactor":0,
				"metallicRoughnessTexture":{
					"extensions":{
						"KHR_texture_transform":{
							"offset":[
								0,
								-0.5
							],
							"scale":[
								1.5,
								1.5
							]
						}
					},
					"index":8,
					"texCoord":2
				}
			}
		},
		{
			"doubleSided":true,
			"name":"Hard White Plaster.002",
			"normalTexture":{
				"index":9,
				"texCoord":2
			},
			"pbrMetallicRoughness":{
				"baseColorTexture":{
					"index":10,
					"texCoord":2
				},
				"metallicFactor":0,
				"metallicRoughnessTexture":{
					"index":11,
					"texCoord":2
				}
			}
		},
		{
			"doubleSided":true,
			"name":"Dirt Ground.002",
			"normalTexture":{
				"extensions":{
					"KHR_texture_transform":{
						"offset":[
							0,
							-0.5
						],
						"scale":[
							1.5,
							1.5
						]
					}
				},
				"index":12,
				"texCoord":2
			},
			"pbrMetallicRoughness":{
				"baseColorTexture":{
					"extensions":{
						"KHR_texture_transform":{
							"offset":[
								0,
								-0.5
							],
							"scale":[
								1.5,
								1.5
							]
						}
					},
					"index":13,
					"texCoord":2
				},
				"metallicFactor":0,
				"metallicRoughnessTexture":{
					"extensions":{
						"KHR_texture_transform":{
							"offset":[
								0,
								-0.5
							],
							"scale":[
								1.5,
								1.5
							]
						}
					},
					"index":14,
					"texCoord":2
				}
			}
		}
	],
	"meshes":[
		{
			"name":"Object_1",
			"primitives":[
				{
					"attributes":{
						"POSITION":0,
						"NORMAL":1,
						"TEXCOORD_0":2,
						"TEXCOORD_1":3,
						"TEXCOORD_2":4
					},
					"indices":5,
					"material":0
				},
				{
					"attributes":{
						"POSITION":6,
						"NORMAL":7,
						"TEXCOORD_0":8,
						"TEXCOORD_1":9,
						"TEXCOORD_2":10
					},
					"indices":11,
					"material":1
				},
				{
					"attributes":{
						"POSITION":12,
						"NORMAL":13,
						"TEXCOORD_0":14,
						"TEXCOORD_1":15,
						"TEXCOORD_2":16
					},
					"indices":17,
					"material":2
				},
				{
					"attributes":{
						"POSITION":18,
						"NORMAL":19,
						"TEXCOORD_0":20,
						"TEXCOORD_1":21,
						"TEXCOORD_2":22
					},
					"indices":11,
					"material":3
				},
				{
					"attributes":{
						"POSITION":23,
						"NORMAL":24,
						"TEXCOORD_0":25,
						"TEXCOORD_1":26,
						"TEXCOORD_2":27
					},
					"indices":17,
					"material":4
				}
			]
		}
	],
	"textures":[
		{
			"sampler":0,
			"source":0
		},
		{
			"sampler":0,
			"source":1
		},
		{
			"sampler":0,
			"source":2
		},
		{
			"sampler":0,
			"source":3
		},
		{
			"sampler":0,
			"source":4
		},
		{
			"sampler":0,
			"source":5
		},
		{
			"sampler":0,
			"source":6
		},
		{
			"sampler":0,
			"source":7
		},
		{
			"sampler":0,
			"source":8
		},
		{
			"sampler":0,
			"source":9
		},
		{
			"sampler":0,
			"source":10
		},
		{
			"sampler":0,
			"source":11
		},
		{
			"sampler":0,
			"source":12
		},
		{
			"sampler":0,
			"source":13
		},
		{
			"sampler":0,
			"source":14
		}
	],
	"images":[
		{
			"mimeType":"image/jpeg",
			"name":"Pine-Raw_Height.jpg",
			"uri":"../../../../../dynamic-vr-musea/client/blender/textures/Pine-Raw_Height.jpg"
		},
		{
			"mimeType":"image/jpeg",
			"name":"Pine.jpg",
			"uri":"../../../../../dynamic-vr-musea/client/blender/textures/Pine.jpg"
		},
		{
			"mimeType":"image/jpeg",
			"name":"Pine-Raw_Height-INVERTED.jpg",
			"uri":"../../../../../dynamic-vr-musea/client/blender/textures/Pine-Raw_Height-INVERTED.jpg"
		},
		{
			"mimeType":"image/jpeg",
			"name":"White Plaster_NormalGL.jpg.001",
			"uri":"../../../../../dynamic-vr-musea/client/blender/textures/Concrete024_4K-JPG_NormalGL.jpg"
		},
		{
			"mimeType":"image/jpeg",
			"name":"White Plaster_Color.jpg.001",
			"uri":"../../../../../dynamic-vr-musea/client/blender/assets/materials/white-plaster_281c69f9-3d44-48c6-a8a4-60f7ea943b87/textures/1_Color.jpg"
		},
		{
			"mimeType":"image/jpeg",
			"name":"White Plaster_Roughness.jpg.001",
			"uri":"../../../../../dynamic-vr-musea/client/blender/textures/Concrete024_4K-JPG_Roughness.jpg"
		},
		{
			"mimeType":"image/jpeg",
			"name":"T_GroundDirt_03_normalOGL.jpg",
			"uri":"../../../../../dynamic-vr-musea/client/blender/textures/T_GroundDirt_03_normalOGL.jpg"
		},
		{
			"mimeType":"image/jpeg",
			"name":"T_GroundDirt_03_basecolor.jpg",
			"uri":"../../../../../dynamic-vr-musea/client/blender/textures/T_GroundDirt_03_basecolor.jpg"
		},
		{
			"mimeType":"image/jpeg",
			"name":"T_GroundDirt_03_roughness.jpg",
			"uri":"../../../../../dynamic-vr-musea/client/blender/textures/T_GroundDirt_03_roughness.jpg"
		},
		{
			"mimeType":"image/jpeg",
			"name":"White Plaster_NormalGL.jpg.003",
			"uri":"../../../../../dynamic-vr-musea/client/blender/textures/Concrete024_4K-JPG_NormalGL.jpg"
		},
		{
			"mimeType":"image/jpeg",
			"name":"White Plaster_Color.jpg.003",
			"uri":"../../../../../dynamic-vr-musea/client/blender/assets/materials/white-plaster_281c69f9-3d44-48c6-a8a4-60f7ea943b87/textures/1_Color.jpg"
		},
		{
			"mimeType":"image/jpeg",
			"name":"White Plaster_Roughness.jpg.003",
			"uri":"../../../../../dynamic-vr-musea/client/blender/textures/Concrete024_4K-JPG_Roughness.jpg"
		},
		{
			"mimeType":"image/jpeg",
			"name":"T_GroundDirt_03_normalOGL.jpg.002",
			"uri":"../../../../../dynamic-vr-musea/client/blender/textures/T_GroundDirt_03_normalOGL.jpg"
		},
		{
			"mimeType":"image/jpeg",
			"name":"T_GroundDirt_03_basecolor.jpg.002",
			"uri":"../../../../../dynamic-vr-musea/client/blender/textures/T_GroundDirt_03_basecolor.jpg"
		},
		{
			"mimeType":"image/jpeg",
			"name":"T_GroundDirt_03_roughness.jpg.002",
			"uri":"../../../../../dynamic-vr-musea/client/blender/textures/T_GroundDirt_03_roughness.jpg"
		}
	],
	"accessors":[
		{
			"bufferView":0,
			"componentType":5126,
			"count":1228,
			"max":[
				1.2074193954467773,
				0.8777338266372681,
				2.5723795890808105
			],
			"min":[
				-1.2047924995422363,
				-3.5515263080596924,
				-2.576416015625
			],
			"type":"VEC3"
		},
		{
			"bufferView":1,
			"componentType":5126,
			"count":1228,
			"type":"VEC3"
		},
		{
			"bufferView":2,
			"componentType":5126,
			"count":1228,
			"type":"VEC2"
		},
		{
			"bufferView":3,
			"componentType":5126,
			"count":1228,
			"type":"VEC2"
		},
		{
			"bufferView":4,
			"componentType":5126,
			"count":1228,
			"type":"VEC2"
		},
		{
			"bufferView":5,
			"componentType":5123,
			"count":1848,
			"type":"SCALAR"
		},
		{
			"bufferView":6,
			"componentType":5126,
			"count":80,
			"max":[
				0.9732677936553955,
				-3.210625648498535,
				6.832393646240234
			],
			"min":[
				-1.2005517482757568,
				-3.5324716567993164,
				2.1126136779785156
			],
			"type":"VEC3"
		},
		{
			"bufferView":7,
			"componentType":5126,
			"count":80,
			"type":"VEC3"
		},
		{
			"bufferView":8,
			"componentType":5126,
			"count":80,
			"type":"VEC2"
		},
		{
			"bufferView":9,
			"componentType":5126,
			"count":80,
			"type":"VEC2"
		},
		{
			"bufferView":10,
			"componentType":5126,
			"count":80,
			"type":"VEC2"
		},
		{
			"bufferView":11,
			"componentType":5123,
			"count":198,
			"type":"SCALAR"
		},
		{
			"bufferView":12,
			"componentType":5126,
			"count":4,
			"max":[
				0.7757117748260498,
				-3.4143354892730713,
				6.655939102172852
			],
			"min":[
				-1.002994179725647,
				-3.4143354892730713,
				2.2890701293945312
			],
			"type":"VEC3"
		},
		{
			"bufferView":13,
			"componentType":5126,
			"count":4,
			"type":"VEC3"
		},
		{
			"bufferView":14,
			"componentType":5126,
			"count":4,
			"type":"VEC2"
		},
		{
			"bufferView":15,
			"componentType":5126,
			"count":4,
			"type":"VEC2"
		},
		{
			"bufferView":16,
			"componentType":5126,
			"count":4,
			"type":"VEC2"
		},
		{
			"bufferView":17,
			"componentType":5123,
			"count":6,
			"type":"SCALAR"
		},
		{
			"bufferView":18,
			"componentType":5126,
			"count":80,
			"max":[
				0.9732561111450195,
				-3.2170960903167725,
				-2.028085947036743
			],
			"min":[
				-1.2005634307861328,
				-3.5389420986175537,
				-6.747865676879883
			],
			"type":"VEC3"
		},
		{
			"bufferView":19,
			"componentType":5126,
			"count":80,
			"type":"VEC3"
		},
		{
			"bufferView":20,
			"componentType":5126,
			"count":80,
			"type":"VEC2"
		},
		{
			"bufferView":21,
			"componentType":5126,
			"count":80,
			"type":"VEC2"
		},
		{
			"bufferView":22,
			"componentType":5126,
			"count":80,
			"type":"VEC2"
		},
		{
			"bufferView":23,
			"componentType":5126,
			"count":4,
			"max":[
				0.7756999731063843,
				-3.4208059310913086,
				-2.2045400142669678
			],
			"min":[
				-1.003005862236023,
				-3.4208059310913086,
				-6.571409225463867
			],
			"type":"VEC3"
		},
		{
			"bufferView":24,
			"componentType":5126,
			"count":4,
			"type":"VEC3"
		},
		{
			"bufferView":25,
			"componentType":5126,
			"count":4,
			"type":"VEC2"
		},
		{
			"bufferView":26,
			"componentType":5126,
			"count":4,
			"type":"VEC2"
		},
		{
			"bufferView":27,
			"componentType":5126,
			"count":4,
			"type":"VEC2"
		}
	],
	"bufferViews":[
		{
			"buffer":0,
			"byteLength":14736,
			"byteOffset":0,
			"target":34962
		},
		{
			"buffer":0,
			"byteLength":14736,
			"byteOffset":14736,
			"target":34962
		},
		{
			"buffer":0,
			"byteLength":9824,
			"byteOffset":29472,
			"target":34962
		},
		{
			"buffer":0,
			"byteLength":9824,
			"byteOffset":39296,
			"target":34962
		},
		{
			"buffer":0,
			"byteLength":9824,
			"byteOffset":49120,
			"target":34962
		},
		{
			"buffer":0,
			"byteLength":3696,
			"byteOffset":58944,
			"target":34963
		},
		{
			"buffer":0,
			"byteLength":960,
			"byteOffset":62640,
			"target":34962
		},
		{
			"buffer":0,
			"byteLength":960,
			"byteOffset":63600,
			"target":34962
		},
		{
			"buffer":0,
			"byteLength":640,
			"byteOffset":64560,
			"target":34962
		},
		{
			"buffer":0,
			"byteLength":640,
			"byteOffset":65200,
			"target":34962
		},
		{
			"buffer":0,
			"byteLength":640,
			"byteOffset":65840,
			"target":34962
		},
		{
			"buffer":0,
			"byteLength":396,
			"byteOffset":66480,
			"target":34963
		},
		{
			"buffer":0,
			"byteLength":48,
			"byteOffset":66876,
			"target":34962
		},
		{
			"buffer":0,
			"byteLength":48,
			"byteOffset":66924,
			"target":34962
		},
		{
			"buffer":0,
			"byteLength":32,
			"byteOffset":66972,
			"target":34962
		},
		{
			"buffer":0,
			"byteLength":32,
			"byteOffset":67004,
			"target":34962
		},
		{
			"buffer":0,
			"byteLength":32,
			"byteOffset":67036,
			"target":34962
		},
		{
			"buffer":0,
			"byteLength":12,
			"byteOffset":67068,
			"target":34963
		},
		{
			"buffer":0,
			"byteLength":960,
			"byteOffset":67080,
			"target":34962
		},
		{
			"buffer":0,
			"byteLength":960,
			"byteOffset":68040,
			"target":34962
		},
		{
			"buffer":0,
			"byteLength":640,
			"byteOffset":69000,
			"target":34962
		},
		{
			"buffer":0,
			"byteLength":640,
			"byteOffset":69640,
			"target":34962
		},
		{
			"buffer":0,
			"byteLength":640,
			"byteOffset":70280,
			"target":34962
		},
		{
			"buffer":0,
			"byteLength":48,
			"byteOffset":70920,
			"target":34962
		},
		{
			"buffer":0,
			"byteLength":48,
			"byteOffset":70968,
			"target":34962
		},
		{
			"buffer":0,
			"byteLength":32,
			"byteOffset":71016,
			"target":34962
		},
		{
			"buffer":0,
			"byteLength":32,
			"byteOffset":71048,
			"target":34962
		},
		{
			"buffer":0,
			"byteLength":32,
			"byteOffset":71080,
			"target":34962
		}
	],
	"samplers":[
		{
			"magFilter":9729,
			"minFilter":9987
		}
	],
	"buffers":[
		{
			"byteLength":71112,
			"uri":"Door.bin"
		}
	]
}
