{
	"asset":{
		"generator":"Khronos glTF Blender I/O v5.1.19",
		"version":"2.0"
	},
	"scene":0,
	"scenes":[
		{
			"name":"Scene",
			"nodes":[
				0,
				1,
				2
			]
		}
	],
	"nodes":[
		{
			"mesh":0,
			"name":"Plane.001",
			"translation":[
				-0.2825508117675781,
				0,
				0.37259721755981445
			]
		},
		{
			"mesh":1,
			"name":"Cube.003",
			"rotation":[
				0,
				-0.3826834559440613,
				0,
				0.9238795638084412
			],
			"translation":[
				3.707639694213867,
				2.7172725200653076,
				-3.7043347358703613
			]
		},
		{
			"mesh":2,
			"name":"Cube.004",
			"rotation":[
				0.005416349973529577,
				-0.2304227501153946,
				0.0035833236761391163,
				0.9730690717697144
			],
			"translation":[
				-3.460099458694458,
				2.714528799057007,
				3.347123861312866
			]
		}
	],
	"materials":[
		{
			"doubleSided":true,
			"name":"Gravel White.004",
			"normalTexture":{
				"index":0
			},
			"pbrMetallicRoughness":{
				"baseColorTexture":{
					"index":1
				},
				"metallicFactor":0,
				"metallicRoughnessTexture":{
					"index":2
				}
			}
		},
		{
			"doubleSided":true,
			"name":"Hard White Plaster.014",
			"normalTexture":{
				"index":3
			},
			"pbrMetallicRoughness":{
				"baseColorTexture":{
					"index":4
				},
				"metallicFactor":0,
				"metallicRoughnessTexture":{
					"index":5
				}
			}
		}
	],
	"meshes":[
		{
			"name":"Plane.014",
			"primitives":[
				{
					"attributes":{
						"POSITION":0,
						"NORMAL":1,
						"TEXCOORD_0":2
					},
					"indices":3,
					"material":0
				}
			]
		},
		{
			"name":"Cube.002",
			"primitives":[
				{
					"attributes":{
						"POSITION":4,
						"NORMAL":5,
						"TEXCOORD_0":6
					},
					"indices":7,
					"material":1
				}
			]
		},
		{
			"name":"Cube.001",
			"primitives":[
				{
					"attributes":{
						"POSITION":8,
						"NORMAL":9,
						"TEXCOORD_0":10
					},
					"indices":11,
					"material":1
				}
			]
		}
	],
	"textures":[
		{
			"sampler":0,
			"source":0
		},
		{
			"sampler":0,
			"source":1
		},
		{
			"sampler":0,
			"source":2
		},
		{
			"sampler":0,
			"source":3
		},
		{
			"sampler":0,
			"source":4
		},
		{
			"sampler":0,
			"source":5
		}
	],
	"images":[
		{
			"mimeType":"image/jpeg",
			"name":"Gravel023_4K_NormalGL",
			"uri":"Gravel023_4K_NormalGL.jpg"
		},
		{
			"mimeType":"image/jpeg",
			"name":"Gravel023_4K_Color",
			"uri":"Gravel023_4K_Color.jpg"
		},
		{
			"mimeType":"image/jpeg",
			"name":"Gravel023_4K_Roughness",
			"uri":"Gravel023_4K_Roughness.jpg"
		},
		{
			"mimeType":"image/jpeg",
			"name":"Concrete024_4K-JPG_NormalGL",
			"uri":"Concrete024_4K-JPG_NormalGL.jpg"
		},
		{
			"mimeType":"image/jpeg",
			"name":"1_Color",
			"uri":"1_Color.jpg"
		},
		{
			"mimeType":"image/jpeg",
			"name":"Concrete024_4K-JPG_Roughness",
			"uri":"Concrete024_4K-JPG_Roughness.jpg"
		}
	],
	"accessors":[
		{
			"bufferView":0,
			"componentType":5126,
			"count":12,
			"max":[
				9.502294540405273,
				1.862645149230957e-09,
				9.515741348266602
			],
			"min":[
				-9.685418128967285,
				-1.862645149230957e-09,
				-9.549979209899902
			],
			"type":"VEC3"
		},
		{
			"bufferView":1,
			"componentType":5126,
			"count":12,
			"type":"VEC3"
		},
		{
			"bufferView":2,
			"componentType":5126,
			"count":12,
			"type":"VEC2"
		},
		{
			"bufferView":3,
			"componentType":5123,
			"count":30,
			"type":"SCALAR"
		},
		{
			"bufferView":4,
			"componentType":5126,
			"count":196,
			"max":[
				7.4962897300720215,
				2.7360193729400635,
				2.8234975337982178
			],
			"min":[
				-7.496290683746338,
				-2.7360193729400635,
				-4.8584208488464355
			],
			"type":"VEC3"
		},
		{
			"bufferView":5,
			"componentType":5126,
			"count":196,
			"type":"VEC3"
		},
		{
			"bufferView":6,
			"componentType":5126,
			"count":196,
			"type":"VEC2"
		},
		{
			"bufferView":7,
			"componentType":5123,
			"count":372,
			"type":"SCALAR"
		},
		{
			"bufferView":8,
			"componentType":5126,
			"count":302,
			"max":[
				16.998430252075195,
				2.766045093536377,
				6.389064311981201
			],
			"min":[
				-17.246028900146484,
				-2.793417453765869,
				-8.14764404296875
			],
			"type":"VEC3"
		},
		{
			"bufferView":9,
			"componentType":5126,
			"count":302,
			"type":"VEC3"
		},
		{
			"bufferView":10,
			"componentType":5126,
			"count":302,
			"type":"VEC2"
		},
		{
			"bufferView":11,
			"componentType":5123,
			"count":516,
			"type":"SCALAR"
		}
	],
	"bufferViews":[
		{
			"buffer":0,
			"byteLength":144,
			"byteOffset":0,
			"target":34962
		},
		{
			"buffer":0,
			"byteLength":144,
			"byteOffset":144,
			"target":34962
		},
		{
			"buffer":0,
			"byteLength":96,
			"byteOffset":288,
			"target":34962
		},
		{
			"buffer":0,
			"byteLength":60,
			"byteOffset":384,
			"target":34963
		},
		{
			"buffer":0,
			"byteLength":2352,
			"byteOffset":444,
			"target":34962
		},
		{
			"buffer":0,
			"byteLength":2352,
			"byteOffset":2796,
			"target":34962
		},
		{
			"buffer":0,
			"byteLength":1568,
			"byteOffset":5148,
			"target":34962
		},
		{
			"buffer":0,
			"byteLength":744,
			"byteOffset":6716,
			"target":34963
		},
		{
			"buffer":0,
			"byteLength":3624,
			"byteOffset":7460,
			"target":34962
		},
		{
			"buffer":0,
			"byteLength":3624,
			"byteOffset":11084,
			"target":34962
		},
		{
			"buffer":0,
			"byteLength":2416,
			"byteOffset":14708,
			"target":34962
		},
		{
			"buffer":0,
			"byteLength":1032,
			"byteOffset":17124,
			"target":34963
		}
	],
	"samplers":[
		{
			"magFilter":9729,
			"minFilter":9987
		}
	],
	"buffers":[
		{
			"byteLength":18156,
			"uri":"tunnel.bin"
		}
	]
}
