{
	"asset":{
		"generator":"Khronos glTF Blender I/O v5.1.19",
		"version":"2.0"
	},
	"scene":0,
	"scenes":[
		{
			"name":"Scene",
			"nodes":[
				0
			]
		}
	],
	"nodes":[
		{
			"mesh":0,
			"name":"Stand"
		}
	],
	"materials":[
		{
			"doubleSided":true,
			"name":"Pine Wood natural",
			"normalTexture":{
				"index":0,
				"scale":0.05000000074505806
			},
			"pbrMetallicRoughness":{
				"baseColorTexture":{
					"index":1
				},
				"metallicFactor":0,
				"metallicRoughnessTexture":{
					"index":2
				}
			}
		}
	],
	"meshes":[
		{
			"name":"Circle.001",
			"primitives":[
				{
					"attributes":{
						"POSITION":0,
						"NORMAL":1,
						"TEXCOORD_0":2
					},
					"indices":3,
					"material":0
				}
			]
		}
	],
	"textures":[
		{
			"sampler":0,
			"source":0
		},
		{
			"sampler":0,
			"source":1
		},
		{
			"sampler":0,
			"source":2
		}
	],
	"images":[
		{
			"mimeType":"image/jpeg",
			"name":"Pine-Raw_Height.jpg",
			"uri":"../../../../../dynamic-vr-musea/client/blender/textures/Pine-Raw_Height.jpg"
		},
		{
			"mimeType":"image/jpeg",
			"name":"Pine.jpg",
			"uri":"../../../../../dynamic-vr-musea/client/blender/textures/Pine.jpg"
		},
		{
			"mimeType":"image/jpeg",
			"name":"Pine-Raw_Height-INVERTED.jpg",
			"uri":"../../../../../dynamic-vr-musea/client/blender/textures/Pine-Raw_Height-INVERTED.jpg"
		}
	],
	"accessors":[
		{
			"bufferView":0,
			"componentType":5126,
			"count":162,
			"max":[
				0.532267689704895,
				1.524818778038025,
				0.36083197593688965
			],
			"min":[
				-0.532267689704895,
				0.007914519868791103,
				-0.3608316481113434
			],
			"type":"VEC3"
		},
		{
			"bufferView":1,
			"componentType":5126,
			"count":162,
			"type":"VEC3"
		},
		{
			"bufferView":2,
			"componentType":5126,
			"count":162,
			"type":"VEC2"
		},
		{
			"bufferView":3,
			"componentType":5123,
			"count":288,
			"type":"SCALAR"
		}
	],
	"bufferViews":[
		{
			"buffer":0,
			"byteLength":1944,
			"byteOffset":0,
			"target":34962
		},
		{
			"buffer":0,
			"byteLength":1944,
			"byteOffset":1944,
			"target":34962
		},
		{
			"buffer":0,
			"byteLength":1296,
			"byteOffset":3888,
			"target":34962
		},
		{
			"buffer":0,
			"byteLength":576,
			"byteOffset":5184,
			"target":34963
		}
	],
	"samplers":[
		{
			"magFilter":9729,
			"minFilter":9987
		}
	],
	"buffers":[
		{
			"byteLength":5760,
			"uri":"Stand.bin"
		}
	]
}
